<svg width="40" height="17" viewBox="0 0 40 17" fill="currentColor" xmlns="http://www.w3.org/2000/svg">
<path d="M36.6634 13.1037L34.6777 9.87086H33.9393V13.1037H31.2644V0.960083H33.9393V7.62265H34.727L36.5485 4.63598H39.6172L36.9588 8.72214L39.7813 13.1037H36.6634Z" fill="currentColor"/>
<path d="M26.6238 13.1037L24.6382 9.87086H23.8997V13.1037H21.2249V0.960083H23.8997V7.62265H24.6874L26.509 4.63598H29.5777L26.9192 8.72214L29.7418 13.1037H26.6238Z" fill="currentColor"/>
<path d="M13.6449 13.2184C11.889 13.2184 10.7402 12.1517 10.7402 10.5764C10.7402 8.80404 12.1515 7.73738 14.449 7.73738C15.1054 7.73738 15.7454 7.81943 16.4346 7.99994V7.78661C16.4346 6.88404 15.8767 6.4902 14.6131 6.4902C13.7269 6.4902 12.9556 6.70353 11.9546 7.1302L11.3146 5.27584C12.611 4.68507 13.612 4.45532 14.9741 4.45532C17.4849 4.45532 18.8961 5.68609 18.8961 7.83584V13.1035H16.5823L16.5331 12.0697C15.8438 12.7589 14.7772 13.2184 13.6449 13.2184ZM13.3166 10.4451C13.3166 11.0194 13.7105 11.364 14.4654 11.364C15.5813 11.364 16.3854 10.6584 16.4674 9.72302C15.8438 9.54251 15.2695 9.44405 14.7936 9.44405C13.8254 9.44405 13.3166 9.78866 13.3166 10.4451Z" fill="currentColor"/>
<path d="M2.70254 16.96C2.11177 16.96 1.53741 16.8615 0.995872 16.681L1.48818 14.4656C1.78357 14.5477 2.07895 14.6133 2.42357 14.6133C3.17844 14.6133 3.68716 14.3015 4.01536 13.4974L0.306641 4.63586H3.21126L4.58972 8.41023L5.1969 10.1989L5.70562 8.41023L6.91998 4.63586H9.75896L6.19793 14.482C5.57434 16.1723 4.42562 16.96 2.70254 16.96Z" fill="currentColor"/>
</svg>
